<?xml version="1.0" standalone="no"?>
<!DOCTYPE svg PUBLIC "-//W3C//DTD SVG 20010904//EN"
 "http://www.w3.org/TR/2001/REC-SVG-20010904/DTD/svg10.dtd">
<svg version="1.0" xmlns="http://www.w3.org/2000/svg"
 width="1563.000000pt" height="1563.000000pt" viewBox="0 0 1563.000000 1563.000000"
 preserveAspectRatio="xMidYMid meet">
<metadata>
Created by potrace 1.14, written by Peter Selinger 2001-2017
</metadata>
<g transform="translate(0.000000,1563.000000) scale(0.100000,-0.100000)"
fill="#000000" stroke="none">
<path d="M7489 14566 c-2 -2 -56 -7 -119 -10 -125 -7 -185 -12 -270 -22 -30
-3 -71 -8 -90 -10 -19 -2 -51 -6 -70 -9 -19 -2 -57 -7 -85 -10 -27 -3 -72 -10
-100 -15 -27 -5 -68 -12 -90 -15 -74 -12 -100 -17 -170 -32 -38 -8 -81 -17
-95 -19 -20 -4 -182 -42 -250 -58 -83 -21 -149 -38 -170 -46 -14 -5 -59 -19
-100 -31 -458 -133 -1012 -370 -1415 -605 -55 -31 -110 -62 -122 -68 -13 -6
-23 -14 -23 -18 0 -5 -5 -8 -10 -8 -14 0 -274 -171 -430 -283 -172 -124 -372
-281 -520 -411 -208 -182 -567 -549 -710 -726 -25 -30 -47 -57 -50 -60 -3 -3
-25 -30 -50 -60 -25 -30 -47 -57 -50 -60 -3 -3 -30 -39 -60 -80 -30 -41 -57
-77 -60 -80 -25 -23 -302 -433 -358 -530 -11 -19 -50 -87 -86 -150 -93 -160
-270 -518 -340 -685 -33 -77 -65 -155 -74 -174 -42 -98 -151 -423 -208 -619
-76 -266 -160 -652 -189 -867 -2 -22 -9 -72 -15 -111 -5 -40 -12 -103 -16
-140 -3 -38 -8 -80 -10 -94 -27 -164 -26 -1000 1 -1236 2 -22 7 -69 10 -106 5
-71 16 -156 40 -318 13 -87 16 -105 20 -120 2 -8 7 -35 10 -60 3 -25 10 -61
15 -80 5 -19 11 -48 14 -65 28 -176 146 -615 228 -845 112 -317 189 -501 323
-775 167 -341 292 -553 546 -925 41 -60 215 -290 244 -324 6 -6 30 -36 55 -66
141 -174 329 -378 524 -568 135 -132 135 -132 227 -212 41 -36 76 -67 79 -70
3 -3 41 -35 85 -70 44 -36 85 -70 92 -77 7 -6 81 -63 165 -126 488 -365 995
-650 1548 -869 69 -27 134 -53 145 -58 56 -24 302 -106 450 -149 85 -25 186
-54 200 -57 6 -1 66 -16 135 -33 121 -29 414 -88 475 -96 39 -5 252 -34 290
-40 28 -3 92 -10 190 -20 280 -27 995 -27 1210 0 17 2 59 6 95 9 70 7 115 12
179 20 23 3 60 8 84 11 42 6 269 42 304 50 142 29 200 41 322 71 259 62 677
191 808 250 17 8 34 14 37 14 7 0 285 116 366 152 89 40 426 211 495 251 402
231 735 461 1045 721 640 536 1208 1229 1600 1951 41 75 202 397 225 450 10
22 25 58 35 80 10 22 24 56 33 75 46 104 127 319 179 475 36 109 126 405 132
437 3 13 21 91 40 173 41 173 101 491 111 585 1 14 5 43 9 65 7 41 10 68 21
185 3 36 8 81 10 100 27 224 27 929 1 1165 -2 22 -7 72 -10 110 -9 109 -15
162 -25 229 -6 33 -13 81 -16 106 -7 55 -20 134 -35 215 -6 33 -13 74 -16 90
-3 17 -9 46 -14 65 -5 19 -12 49 -14 65 -58 326 -270 969 -441 1340 -53 113
-186 380 -224 448 -68 122 -176 305 -219 372 -73 113 -156 240 -162 245 -3 3
-28 37 -55 75 -27 39 -58 82 -69 96 -12 15 -30 39 -41 55 -117 164 -406 494
-610 697 -80 79 -211 203 -309 292 -202 183 -535 436 -806 612 -705 458 -1517
786 -2345 947 -129 25 -157 30 -225 41 -19 3 -46 7 -60 10 -14 2 -43 7 -65 10
-22 3 -51 7 -65 10 -30 4 -134 15 -290 30 -36 4 -87 9 -115 12 -59 6 -811 14
-816 9z"/>
</g>
</svg>
